<svg width="103" height="100" viewBox="0 0 103 100" fill="none" xmlns="http://www.w3.org/2000/svg">
<path fill-rule="evenodd" clip-rule="evenodd" d="M80.6094 56H103V66.4923C98.9068 81.3317 88.4625 93.5369 74.7749 100H29.9955C13.1963 92.0676 1.28255 75.4857 0 56H24.1609C25.8859 70.0544 37.8646 80.9375 52.3852 80.9375C66.9058 80.9375 78.8845 70.0544 80.6094 56ZM103 38.5077V49H80.6094C78.8845 34.9456 66.9058 24.0625 52.3852 24.0625C37.8646 24.0625 25.8859 34.9456 24.1609 49H0C1.80104 21.6369 24.5663 0 52.3852 0C76.5347 0 96.8759 16.3055 103 38.5077ZM52.5 70C62.165 70 70 62.165 70 52.5C70 42.835 62.165 35 52.5 35C42.835 35 35 42.835 35 52.5C35 62.165 42.835 70 52.5 70Z" fill="#D9D9D9"/>
</svg>
