<svg width="105" height="105" viewBox="0 0 105 105" fill="none" xmlns="http://www.w3.org/2000/svg">
<circle cx="52.5" cy="52.5" r="17.5" fill="#E5E7EB"/>
<path fill-rule="evenodd" clip-rule="evenodd" d="M104.77 56H80.6094C78.8845 70.0544 66.9058 80.9375 52.3852 80.9375C37.8646 80.9375 25.8859 70.0544 24.1609 56H0C1.80105 83.3631 24.5663 105 52.3852 105C80.204 105 102.969 83.3631 104.77 56ZM104.77 49C102.969 21.6369 80.204 0 52.3852 0C24.5663 0 1.80105 21.6369 0 49H24.1609C25.8859 34.9456 37.8646 24.0625 52.3852 24.0625C66.9058 24.0625 78.8845 34.9456 80.6094 49H104.77Z" fill="#E5E7EB"/>
</svg>
